<svg id="_1_Image" data-name="1 Image" xmlns="http://www.w3.org/2000/svg" xmlns:xlink="http://www.w3.org/1999/xlink" viewBox="0 0 1000 1000"><defs><style>.cls-1{fill-rule:evenodd;fill:url(#New_Gradient_Swatch_2);}.cls-2{fill:url(#New_Gradient_Swatch_2-2);}</style><linearGradient id="New_Gradient_Swatch_2" y1="500" x2="1000" y2="500" gradientUnits="userSpaceOnUse"><stop offset="0" stop-color="#5fb93e"/><stop offset="1" stop-color="#00a1e4"/></linearGradient><linearGradient id="New_Gradient_Swatch_2-2" x1="297.99" y1="498.98" x2="701" y2="498.98" xlink:href="#New_Gradient_Swatch_2"/></defs><path class="cls-1" d="M500,0C223.85,0,0,223.85,0,500s223.85,500,500,500,500-223.85,500-500S776.15,0,500,0Zm0,921.31c-201.57,0-370.08-141.55-411.55-330.68l126.08,111.7s12.49,9.72,25.9,9.72,39.93-11.79,39.93-38.88c0-19.2-11-28.7-19.42-37.79-6.64-7.2-10.79-10.8-10.79-10.8S201.6,573.08,201.6,495V493.9c0-78.1,48.56-128.52,48.56-128.52s4.15-3.6,10.79-10.79c8.4-9.1,19.42-18.6,19.42-37.8,0-27.09-26.51-38.88-39.93-38.88s-25.9,9.72-25.9,9.72l-123.08,109C137.53,214,303,78.69,500,78.69S862.57,214,908.58,396.84L784.69,287.63s-12.48-9.72-25.9-9.72-39.92,11.79-39.92,38.88c0,19.2,11,28.7,19.42,37.8,6.64,7.19,10.79,10.79,10.79,10.79s48.55,50.42,48.55,128.52V495c0,78.1-48.55,129.6-48.55,129.6s-4.15,3.6-10.79,10.8c-8.4,9.09-19.42,18.59-19.42,37.79,0,27.09,26.51,38.88,39.92,38.88s25.9-9.72,25.9-9.72L911.57,590.48C870.16,779.68,701.62,921.31,500,921.31Z"/><path class="cls-2" d="M540.15,867.65V775.48C644.07,757.41,701,688.74,701,608.32c0-81.33-43.38-131-150.91-169-76.8-28.91-108.43-47.89-108.43-77.71,0-25.3,19-50.6,77.71-50.6,65.06,0,106.63,20.78,130.12,30.72l26.2-102.11c-29.81-14.45-70.48-27.1-131-29.81V130.31H456.12v85.84c-96.69,19-152.71,81.33-152.71,160.84,0,87.65,66,132.83,162.65,165.36,66.86,22.59,95.78,44.28,95.78,78.62,0,36.14-35.24,56-86.75,56-58.73,0-112-19-150-39.76L298,743c34.33,19.88,93.07,36.15,153.61,38.86v85.84Z"/></svg>